# xmcd
#
# Track frame offsets:
#	187
#	23942
#	44435
#	67802
#	87457
#	107757
#	124980
#	145150
#	161022
#	177620
#	194772
#	211730
#	235637
#	250242
#	268495
#
# Disc length: 3798 seconds
#
# Revision: 1
# Processed by: cddbd v1.5.1PL0 Copyright (c) Steve Scherf et al.
# Submitted via: CDex 1.50Beta5
#
DISCID=e20ed40f
DTITLE=Various Artist - NEW MUSIC BEST SELECTION 12
DYEAR=1900
DGENRE=New Age
TTITLE0=アン・ルイス/六本木心中
TTITLE1=アン・ルイス/あゝ無情
TTITLE2=アン・ルイス/天使よ故郷を見よ
TTITLE3=徳永英明/レイニーブルー
TTITLE4=徳永英明/輝きながら・・・
TTITLE5=徳永英明/風のエオリア
TTITLE6=葛城ユキ/ヒーロー
TTITLE7=葛城ユキ/ボヘミアン
TTITLE8=吉川晃司/モニカ
TTITLE9=吉川晃司/ユー・ガッタ・チャンス
TTITLE10=吉川晃司/サヨナラは八月のララバイ
TTITLE11=山下久美子/リリス
TTITLE12=山下久美子/赤道小町ドキッ!
TTITLE13=山下久美子/バスルームから愛をこめて
TTITLE14=桑江知子/私のハートはストップモーション
EXTD=
EXTT0=
EXTT1=
EXTT2=
EXTT3=
EXTT4=
EXTT5=
EXTT6=
EXTT7=
EXTT8=
EXTT9=
EXTT10=
EXTT11=
EXTT12=
EXTT13=
EXTT14=
PLAYORDER=
